<svg width="1561" height="1335" viewBox="0 0 1561 1335" fill="none" xmlns="http://www.w3.org/2000/svg">
<path d="M606 274L963 776.5L606 1279L249 776.5L606 274Z" fill="url(#paint0_linear)"/>
<g filter="url(#filter0_d)">
<path d="M780 30L1137 532.5L780 1035L423 532.5L780 30Z" fill="#EAB3B3"/>
</g>
<g filter="url(#filter1_d)">
<path d="M780 30L681 532.5L780 1035L423 532.5L780 30Z" fill="#806363"/>
</g>
<g filter="url(#filter2_d)">
<path d="M456.811 1185C445.099 1185 436.507 1182.46 431.035 1177.37C425.563 1172.28 422.827 1164.65 422.827 1154.47V1114.73C422.827 1104.55 425.563 1096.92 431.035 1091.83C436.507 1086.74 445.099 1084.2 456.811 1084.2H491.227V1095H456.811C449.803 1095 444.667 1096.63 441.403 1099.9C438.139 1103.06 436.507 1108.01 436.507 1114.73V1129.13H484.171V1140.07H436.507V1154.47C436.507 1161.19 438.139 1166.18 441.403 1169.45C444.667 1172.62 449.803 1174.2 456.811 1174.2H491.803V1185H456.811ZM560.067 1186.58C546.723 1186.58 536.547 1183.51 529.539 1177.37C522.531 1171.13 519.027 1161.96 519.027 1149.86V1119.19C519.027 1107.29 522.483 1098.22 529.395 1091.98C536.307 1085.74 546.243 1082.62 559.203 1082.62C567.939 1082.62 575.283 1084.01 581.235 1086.79C587.187 1089.58 592.035 1093.85 595.779 1099.61L585.987 1106.52C582.723 1102.01 579.027 1098.7 574.899 1096.58C570.771 1094.47 565.635 1093.42 559.491 1093.42C541.635 1093.42 532.707 1102.01 532.707 1119.19V1149.86C532.707 1167.14 541.827 1175.78 560.067 1175.78C566.595 1175.78 571.971 1174.68 576.195 1172.47C580.419 1170.26 584.115 1166.81 587.283 1162.1L596.931 1169.45C592.515 1175.5 587.475 1179.86 581.811 1182.55C576.243 1185.24 568.995 1186.58 560.067 1186.58ZM661.988 1186.73C649.7 1186.73 640.148 1184.09 633.332 1178.81C626.612 1173.43 623.252 1166.09 623.252 1156.78V1084.2H636.932V1156.78C636.932 1162.82 639.092 1167.53 643.412 1170.89C647.828 1174.15 654.02 1175.78 661.988 1175.78C669.956 1175.78 676.1 1174.15 680.42 1170.89C684.836 1167.62 687.044 1162.92 687.044 1156.78V1084.2H700.724V1156.78C700.724 1166.09 697.316 1173.43 690.5 1178.81C683.78 1184.09 674.276 1186.73 661.988 1186.73ZM735.702 1084.2H743.334C748.71 1084.2 752.838 1085.35 755.718 1087.66C758.694 1089.96 761.766 1094.23 764.934 1100.47L781.926 1133.16L798.918 1100.47C802.086 1094.23 805.11 1089.96 807.99 1087.66C810.966 1085.35 815.142 1084.2 820.518 1084.2H828.15V1185H815.478V1098.17C814.23 1098.26 813.126 1098.79 812.166 1099.75C811.302 1100.62 810.246 1102.15 808.998 1104.36L781.926 1155.19L754.854 1104.36C753.702 1102.15 752.646 1100.62 751.686 1099.75C750.726 1098.79 749.622 1098.26 748.374 1098.17V1185H735.702V1084.2ZM923.647 1155.62H880.159L871.231 1185H857.551L883.039 1102.06C884.575 1097.06 886.159 1093.18 887.791 1090.39C889.423 1087.61 891.343 1085.64 893.551 1084.49C895.759 1083.24 898.495 1082.62 901.759 1082.62C906.559 1082.62 910.351 1084.06 913.135 1086.94C915.919 1089.72 918.415 1094.76 920.623 1102.06L946.255 1185H932.431L923.647 1155.62ZM920.479 1145.11L907.519 1102.2C906.751 1099.61 905.935 1097.83 905.071 1096.87C904.207 1095.82 903.103 1095.29 901.759 1095.29C900.511 1095.29 899.455 1095.82 898.591 1096.87C897.823 1097.83 897.055 1099.61 896.287 1102.2L883.327 1145.11H920.479ZM1013.06 1135.18L1045.75 1185H1030.05L1004.13 1145.4L978.071 1185H962.663L996.359 1133.59L964.103 1084.2H979.511L1005.29 1123.37L1031.06 1084.2H1046.33L1013.06 1135.18ZM1101.32 1082.62C1112.65 1082.62 1121.39 1085.93 1127.53 1092.55C1133.77 1099.18 1136.89 1108.78 1136.89 1121.35C1136.89 1138.54 1132.28 1152.84 1123.07 1164.26C1113.85 1175.59 1100.89 1183.03 1084.19 1186.58L1079.72 1177.22C1091.05 1175.3 1100.41 1170.74 1107.8 1163.54C1115.29 1156.34 1120.23 1147.22 1122.63 1136.18C1117.16 1142.14 1109.43 1145.11 1099.45 1145.11C1089.18 1145.11 1081.02 1142.38 1074.97 1136.9C1069.02 1131.34 1066.04 1123.8 1066.04 1114.3C1066.04 1104.5 1069.21 1096.78 1075.55 1091.11C1081.88 1085.45 1090.47 1082.62 1101.32 1082.62ZM1101.18 1135.18C1111.55 1135.18 1119.23 1131.14 1124.22 1123.08V1121.06C1124.22 1112.04 1122.3 1105.03 1118.46 1100.04C1114.71 1095.05 1109 1092.55 1101.32 1092.55C1094.22 1092.55 1088.65 1094.47 1084.62 1098.31C1080.68 1102.06 1078.71 1107.34 1078.71 1114.15C1078.71 1120.87 1080.68 1126.06 1084.62 1129.7C1088.55 1133.35 1094.07 1135.18 1101.18 1135.18Z" fill="black"/>
</g>
<defs>
<filter id="filter0_d" x="418" y="30" width="722" height="1013" filterUnits="userSpaceOnUse" color-interpolation-filters="sRGB">
<feFlood flood-opacity="0" result="BackgroundImageFix"/>
<feColorMatrix in="SourceAlpha" type="matrix" values="0 0 0 0 0 0 0 0 0 0 0 0 0 0 0 0 0 0 127 0"/>
<feOffset dx="-1" dy="4"/>
<feGaussianBlur stdDeviation="2"/>
<feColorMatrix type="matrix" values="0 0 0 0 0 0 0 0 0 0 0 0 0 0 0 0 0 0 0.25 0"/>
<feBlend mode="normal" in2="BackgroundImageFix" result="effect1_dropShadow"/>
<feBlend mode="normal" in="SourceGraphic" in2="effect1_dropShadow" result="shape"/>
</filter>
<filter id="filter1_d" x="419" y="30" width="365" height="1013" filterUnits="userSpaceOnUse" color-interpolation-filters="sRGB">
<feFlood flood-opacity="0" result="BackgroundImageFix"/>
<feColorMatrix in="SourceAlpha" type="matrix" values="0 0 0 0 0 0 0 0 0 0 0 0 0 0 0 0 0 0 127 0"/>
<feOffset dy="4"/>
<feGaussianBlur stdDeviation="2"/>
<feColorMatrix type="matrix" values="0 0 0 0 0 0 0 0 0 0 0 0 0 0 0 0 0 0 0.25 0"/>
<feBlend mode="normal" in2="BackgroundImageFix" result="effect1_dropShadow"/>
<feBlend mode="normal" in="SourceGraphic" in2="effect1_dropShadow" result="shape"/>
</filter>
<filter id="filter2_d" x="397.827" y="1082.62" width="739.063" height="129.112" filterUnits="userSpaceOnUse" color-interpolation-filters="sRGB">
<feFlood flood-opacity="0" result="BackgroundImageFix"/>
<feColorMatrix in="SourceAlpha" type="matrix" values="0 0 0 0 0 0 0 0 0 0 0 0 0 0 0 0 0 0 127 0"/>
<feOffset dx="-15" dy="15"/>
<feGaussianBlur stdDeviation="5"/>
<feColorMatrix type="matrix" values="0 0 0 0 0 0 0 0 0 0 0 0 0 0 0 0 0 0 0.25 0"/>
<feBlend mode="normal" in2="BackgroundImageFix" result="effect1_dropShadow"/>
<feBlend mode="normal" in="SourceGraphic" in2="effect1_dropShadow" result="shape"/>
</filter>
<linearGradient id="paint0_linear" x1="663" y1="737.5" x2="329" y2="1023.5" gradientUnits="userSpaceOnUse">
<stop stop-color="#806363"/>
<stop offset="0.411458" stop-color="#B4A3A3" stop-opacity="0.588542"/>
<stop offset="1" stop-color="white" stop-opacity="0"/>
</linearGradient>
</defs>
</svg>
